<?xml version="1.0" encoding="UTF-8" standalone="no"?>
<!-- Created with Inkscape (http://www.inkscape.org/) -->

<svg
   version="1.1"
   id="svg1"
   width="1754"
   height="1240"
   viewBox="0 0 1754 1240"
   sodipodi:docname="BID_Blanco.svg"
   inkscape:version="1.4.4 (dcaf3e7, 2026-05-05)"
   xmlns:inkscape="http://www.inkscape.org/namespaces/inkscape"
   xmlns:sodipodi="http://sodipodi.sourceforge.net/DTD/sodipodi-0.dtd"
   xmlns="http://www.w3.org/2000/svg"
   xmlns:svg="http://www.w3.org/2000/svg">
  <defs
     id="defs1" />
  <sodipodi:namedview
     id="namedview1"
     pagecolor="#ffffff"
     bordercolor="#000000"
     borderopacity="0.25"
     inkscape:showpageshadow="2"
     inkscape:pageopacity="0.0"
     inkscape:pagecheckerboard="0"
     inkscape:deskcolor="#d1d1d1"
     inkscape:zoom="0.61048387"
     inkscape:cx="877.17305"
     inkscape:cy="620"
     inkscape:window-width="2880"
     inkscape:window-height="1514"
     inkscape:window-x="-11"
     inkscape:window-y="-6"
     inkscape:window-maximized="1"
     inkscape:current-layer="g1" />
  <g
     inkscape:groupmode="layer"
     inkscape:label="Image"
     id="g1">
    <path
       style="fill:#ffffff"
       d="M 376.3898,917.99965 C 309.27121,913.34676 245.51924,888.52494 192.5,846.4022 177.89704,834.80043 150.67028,807.30841 139.61306,793 112.68824,758.15837 95.099506,724.04354 82.990252,683.17529 68.139387,633.05422 65.507196,577.46733 75.594923,527 83.751333,486.19475 101.28554,442.85261 122.32458,411.49076 l 4.36705,-6.50973 0.6495,12.07943 c 2.59623,48.28437 26.23368,85.75783 75.15887,119.15259 27.10546,18.5013 55.48689,32.49031 111.48127,54.94831 54.06869,21.68565 69.84042,28.78033 83.33771,37.48822 14.85613,9.58456 21.96673,19.04207 21.96673,29.21702 0,4.56456 -0.82932,6.96267 -5.53361,16.00132 C 406.9358,686.96449 405,693.29736 405,702.5 c 0,16.28755 6.37737,27.4463 32.00468,56 16.73074,18.64122 27.32735,36.16348 32.65659,54 2.42994,8.13284 2.69482,10.5898 2.74904,25.5 0.0453,12.44567 -0.3896,18.56184 -1.76978,24.8911 -2.57788,11.82175 -7.47695,26.73166 -13.07329,39.78748 l -4.79168,11.17857 -6.63778,1.07614 c -19.11205,3.09852 -49.81372,4.44827 -69.74798,3.06636 z M 488,905.43989 c 0,-0.24878 2.50396,-4.63443 5.56435,-9.74589 15.61215,-26.0754 50.69621,-70.89645 112.86909,-144.194 27.73629,-32.69917 33.465,-40.30623 38.99471,-51.78036 7.54218,-15.65001 8.31045,-26.33476 2.73986,-38.10451 -8.37129,-17.68717 -32.09063,-30.77701 -79.15074,-43.68043 -7.97697,-2.1872 -33.85667,-8.26608 -57.51043,-13.50862 C 442.20376,589.066 409.43262,580.00879 383.5,569.04784 347.91869,554.00868 325.49463,534.43845 316.91883,510.9402 c -17.77038,-48.69199 29.09602,-94.33652 153.15874,-149.1657 16.05163,-7.09397 91.37527,-39.01506 105.11536,-44.54639 l 3.69293,-1.48666 10.80707,7.87189 c 52.13707,37.9767 90.27454,86.96551 113.65184,145.98949 9.5422,24.09255 16.05781,49.04026 20.34445,77.89717 2.56944,17.297 2.55981,68.8146 -0.0161,86 -5.58686,37.2736 -15.28998,69.04883 -30.60534,100.22471 -17.19789,35.00793 -36.56527,62.03693 -63.97677,89.28558 -27.74367,27.57884 -60.20046,50.13708 -94.45692,65.64982 C 518.73124,895.86158 488,906.91922 488,905.43989 Z m 78.41821,-337.04688 c 2.45049,-0.94034 1.8865,-2.95882 -1.6607,-5.9436 C 559.70566,558.19856 553.56561,556 546.74584,556 c -6.44515,0 -10.11349,1.87834 -9.05507,4.63655 1.66362,4.33532 22.78295,10.03758 28.72744,7.75646 z M 522.62648,542.50908 C 524.27296,541.43027 525,540.01175 525,537.87816 c 0,-6.0814 -10.80472,-12.90204 -26.87668,-16.9663 -9.33253,-2.36 -14.64474,-1.99508 -15.61848,1.0729 -1.87813,5.91744 12.88874,19.04802 24.87784,22.12117 4.33276,1.11061 12.40172,0.26535 15.2438,-1.59685 z m -64.70975,-15.4852 C 462.35293,525.7516 466,522.26029 466,519.28585 c 0,-7.9958 -12.59302,-19.79345 -28.75945,-26.94301 -18.03089,-7.97411 -42.269,-8.42548 -55.70423,-1.03734 -3.26009,1.79275 -4.09696,2.84725 -4.35164,5.48333 -1.14944,11.89741 24.23389,26.45302 52.45009,30.07654 9.625,1.23605 24.23922,1.31795 28.28196,0.15851 z M 825,611 V 409 l 95.85478,0 c 57.4078,0 101.02702,0.41702 108.75002,1.0397 63.5282,5.12205 106.0453,36.60437 116.0902,85.9603 2.1146,10.39 2.028,33.12769 -0.1653,43.43909 -4.9778,23.40173 -17.4077,43.27912 -35.6289,56.97621 l -5.9994,4.50988 6.8602,3.45474 c 18.7725,9.45369 36.6611,25.06575 45.211,39.45721 9.6359,16.21978 13.5024,34.16569 12.7467,59.16287 -0.5425,17.94166 -1.9811,25.32857 -7.7285,39.68191 -6.2706,15.66023 -20.6549,33.01333 -35.8606,43.26207 -21.3299,14.37647 -52.2478,23.4619 -88.6302,26.04463 -7.8351,0.5562 -57.48442,0.9977 -112.75,1.00261 L 825,813 Z m 214.4124,111.66758 c 14.6955,-3.46763 24.7359,-10.27147 28.8913,-19.57819 2.8135,-6.30119 3.456,-18.96443 1.3328,-26.26792 -2.2385,-7.69997 -7.9705,-13.89239 -16.9518,-18.31339 -13.0259,-6.41191 -15.9468,-6.68592 -76.9347,-7.2173 L 921,650.81376 v 37.17319 37.17319 l 55.75,-0.43073 c 46.9835,-0.36301 56.837,-0.68722 62.6624,-2.06183 z M 1020.5,564.64763 c 13.6555,-3.96438 21.8385,-9.68277 26.0167,-18.18079 2.9352,-5.96982 3.3444,-21.73183 0.7183,-27.66859 -2.8646,-6.47572 -7.793,-11.54636 -14.5264,-14.94533 -11.3515,-5.73021 -14.7978,-6.0766 -65.4586,-6.57909 L 921,496.8151 v 35.15494 35.15494 l 46.75,-0.36773 c 40.7524,-0.32055 47.5197,-0.5912 52.75,-2.10962 z M 1196,611.00942 V 409 l 28.25,0.0119 c 29.9275,0.0126 33.9379,0.48021 43.3998,5.06065 7.1579,3.4651 17.8154,14.09324 21.3519,21.29327 6.317,12.86063 6.0288,2.89567 5.751,198.83341 L 1294.5,812.5 l -49.25,0.25942 -49.25,0.25943 z m 137.4876,200.80699 C 1333.2123,811.09238 1333.1025,720.275 1333.2435,610 l 0.2565,-200.5 89,9.9e-4 c 66.9844,7.5e-4 91.35,0.31943 98.5,1.2883 29.5587,4.0054 54.099,11.36601 78,23.39534 57.4114,28.89508 94.9136,80.74692 104.4289,144.387 9.3523,62.54985 -9.2012,124.51351 -50.5681,168.88368 -27.5008,29.49747 -66.2961,50.67725 -109.8608,59.9771 -22.6385,4.8327 -23.4904,4.8707 -118.7559,5.29675 -73.996,0.33093 -90.3461,0.1665 -90.7565,-0.91275 z m 181.1314,-91.35705 c 32.6162,-5.65812 58.0452,-22.44984 73.3778,-48.45396 4.7529,-8.06099 9.8975,-21.16991 12.1102,-30.85841 2.631,-11.51961 3.5695,-34.73453 1.9306,-47.7552 -6.1648,-48.97702 -39.0382,-83.40625 -87.7477,-91.90046 C 1507.7517,500.35116 1497.0566,500 1468.869,500 H 1432 v 111 111 h 36.869 c 28.6951,0 38.838,-0.34156 45.75,-1.54064 z"
       id="path1" />
  </g>
</svg>
