<?xml version="1.0" encoding="UTF-8" standalone="no"?>
<!-- Created with Inkscape (http://www.inkscape.org/) -->

<svg
   width="210mm"
   height="297mm"
   viewBox="0 0 210 297"
   version="1.1"
   id="svg1"
   xml:space="preserve"
   inkscape:version="1.4.4 (dcaf3e7d9e, 2026-05-05)"
   sodipodi:docname="flower.svg"
   xmlns:inkscape="http://www.inkscape.org/namespaces/inkscape"
   xmlns:sodipodi="http://sodipodi.sourceforge.net/DTD/sodipodi-0.dtd"
   xmlns="http://www.w3.org/2000/svg"
   xmlns:svg="http://www.w3.org/2000/svg"><sodipodi:namedview
     id="namedview1"
     pagecolor="#ffffff"
     bordercolor="#000000"
     borderopacity="0.25"
     inkscape:showpageshadow="2"
     inkscape:pageopacity="0.0"
     inkscape:pagecheckerboard="0"
     inkscape:deskcolor="#d1d1d1"
     inkscape:document-units="mm"
     inkscape:zoom="0.7180275"
     inkscape:cx="219.35093"
     inkscape:cy="561.25984"
     inkscape:window-width="1854"
     inkscape:window-height="1011"
     inkscape:window-x="0"
     inkscape:window-y="0"
     inkscape:window-maximized="1"
     inkscape:current-layer="layer1" /><defs
     id="defs1" /><g
     inkscape:label="Layer 1"
     inkscape:groupmode="layer"
     id="layer1"><path
       style="fill:#f7f1e3;fill-opacity:1"
       d="m 86.918889,216.42578 c -0.517933,-0.0986 -0.590603,-0.2293 -0.446519,-0.80338 0.09465,-0.37712 0.575312,-3.07614 1.068136,-5.99782 1.475805,-8.74923 1.957784,-10.94588 3.313563,-15.10173 2.519206,-7.72208 3.918112,-14.77132 4.152213,-20.92344 0.16441,-4.32067 -0.119266,-6.38489 -1.281858,-9.32765 -1.934657,-4.89702 -5.216931,-8.63583 -11.305138,-12.87758 -5.536098,-3.85708 -7.546536,-5.46619 -10.378433,-8.30663 -4.67778,-4.69189 -7.98904,-9.6369 -12.50794,-18.67928 -4.26286,-8.53003 -8.62266,-16.32113 -11.05314,-19.7523 -0.60105,-0.8485 -0.61789,-1.01749 -0.10141,-1.01749 0.21785,0 1.25964,0.81234 2.31511,1.8052 3.153,2.96599 5.38957,4.74995 8.76985,6.99516 4.50278,2.99078 9.05526,5.09703 16.043465,7.42266 3.278526,1.09108 7.015387,2.47093 8.304135,3.06633 8.527457,3.9397 13.454156,10.33716 15.256437,19.81092 0.173869,0.91395 0.360544,1.61731 0.414833,1.56302 0.372469,-0.37247 1.227037,-8.2329 1.227917,-11.29454 8.9e-4,-3.12404 -0.0889,-3.87043 -0.716296,-5.95313 -0.889155,-2.95169 -2.65289,-6.33884 -4.47694,-8.5977 -0.763256,-0.94519 -2.692262,-2.82999 -4.286681,-4.18845 -6.236743,-5.31372 -9.885944,-9.2922 -13.42794,-14.639553 -3.27332,-4.94174 -5.65552,-9.50936 -8.27338,-15.86329 -2.2906,-5.55966 -4.92437,-13.77037 -4.54033,-14.15441 0.33949,-0.33949 5.69847,3.62406 11.346793,8.39219 1.963528,1.65754 5.218878,4.20434 7.234111,5.65955 5.523004,3.98818 9.089632,6.68003 10.790674,8.14406 0.842025,0.7247 1.575865,1.27235 1.630755,1.217 0.05489,-0.0554 0.13801,-1.24141 0.184712,-2.63568 l 0.08491,-2.53504 -1.085801,-1.30142 c -5.581793,-6.69024 -9.412872,-18.7254 -10.015715,-31.46392 -0.169993,-3.59208 0.134362,-8.86761 0.512492,-8.88329 0.137855,-0.006 0.50957,0.88677 0.826034,1.9833 1.134301,3.9303 3.06825,7.04351 6.567758,10.57258 2.050884,2.0682 7.312414,6.56245 7.495994,6.40286 0.18282,-0.15893 -0.30965,-6.19718 -0.49604,-6.08199 -0.325212,0.20099 -0.27708,-0.0818 0.15669,-0.92062 0.20972,-0.40554 0.69109,-1.95948 1.06974,-3.45321 0.7028,-2.77255 1.72751,-5.61948 4.05555,-11.26747 1.55444,-3.77117 2.76154,-7.855993 3.5341,-11.959335 0.30894,-1.640898 0.6539,-2.983451 0.76658,-2.983451 0.23004,0 0.40392,0.774342 0.65355,2.910416 0.34569,2.958054 1.28358,6.63366 3.1734,12.43654 1.06651,3.27483 2.08699,6.75679 2.26772,7.73768 0.18074,0.98089 0.39483,1.71722 0.47576,1.63629 0.0809,-0.0809 0.20929,-0.73856 0.28525,-1.4614 0.28953,-2.75531 0.78861,-1.37605 1.9784,5.46753 0.97297,5.5965 0.9781,13.76937 0.0116,18.50107 -0.2378,1.16417 -0.83788,3.06241 -1.33353,4.21832 -0.49565,1.15591 -0.84931,2.15353 -0.78591,2.21693 0.16315,0.16316 6.20309,-3.19894 8.75127,-4.87135 3.73464,-2.45108 7.35203,-6.1771 11.22494,-11.56203 0.79885,-1.11072 1.54888,-1.92306 1.66674,-1.8052 0.11786,0.11786 -0.16193,1.15495 -0.62176,2.30464 -1.74035,4.35139 -3.26167,8.93819 -5.30047,15.98098 -2.39362,8.26848 -3.46822,11.22389 -5.07035,13.94467 -2.50758,4.258433 -5.27171,6.934013 -11.50333,11.134783 -2.17981,1.46942 -4.60538,3.26104 -5.39015,3.98137 -2.66666,2.44767 -4.28805,6.0965 -5.25532,11.82675 -0.76696,4.54355 -0.72486,4.834 0.41039,2.83107 1.10454,-1.94876 3.31338,-4.40802 5.40418,-6.01685 3.50837,-2.69963 7.57531,-4.27442 14.94722,-5.78781 7.24375,-1.48708 10.23135,-2.63185 14.94895,-5.72805 2.78696,-1.8291 4.01445,-2.80114 7.5912,-6.01145 3.5922,-3.224173 3.64717,-2.958993 0.39029,1.883 -2.46156,3.6596 -4.23214,6.71358 -8.91734,15.38106 -4.27449,7.90767 -6.22536,10.73973 -10.03681,14.57026 -3.65046,3.66874 -6.73757,5.59205 -14.80156,9.22158 -5.72969,2.57889 -7.34426,3.56804 -9.50017,5.82021 -3.07009,3.20717 -5.10781,9.17045 -6.087401,17.81451 -0.13162,1.16143 0.184245,1.53873 0.487718,0.58257 0.313233,-0.98692 3.219183,-4.59744 4.795083,-5.9577 3.08902,-2.66632 5.62324,-4.07521 9.63828,-5.35835 3.4793,-1.11193 6.49075,-1.59067 12.7992,-2.03472 2.96426,-0.20865 6.50212,-0.62165 7.8619,-0.91776 7.84573,-1.70853 15.07175,-5.34588 22.8247,-11.48926 1.89953,-1.50517 2.9793,-2.2005 3.1508,-2.02899 0.28679,0.28678 -0.71231,1.48635 -5.74472,6.89744 -2.8626,3.07801 -6.45049,7.78546 -11.797,15.47813 -3.67496,5.28761 -6.25263,8.42136 -9.626,11.70262 -5.97027,5.80727 -10.12846,7.95533 -20.91519,10.8045 -6.52333,1.72305 -10.14184,3.5801 -13.578259,6.96848 -1.851106,1.82523 -2.761902,3.2002 -4.451614,6.72032 -2.15502,4.48949 -3.124196,8.20938 -4.5115,17.31606 -0.127387,0.8362 -0.165297,0.8589 -1.375778,0.82386 -0.68463,-0.0198 -1.523157,-0.089 -1.863392,-0.15375 z m 2.818699,-3.05136 c 1.422745,-10.57127 5.076861,-19.1092 9.985737,-23.33194 1.860765,-1.60067 5.219175,-3.64535 7.222985,-4.39753 0.8213,-0.30829 3.4578,-1.07862 5.8589,-1.71183 10.59844,-2.79503 14.59104,-4.9257 20.7962,-11.09803 3.37219,-3.35434 6.27295,-6.99014 10.56112,-13.23724 2.41018,-3.5112 4.25683,-6.11432 5.25548,-7.40833 l 0.81676,-1.05833 -1.21888,0.98253 c -6.27623,5.05922 -10.57307,7.48212 -16.27635,9.17787 -1.04158,0.30969 -4.67299,1.02655 -8.06979,1.59302 -9.29317,1.54977 -10.9135,2.0773 -15.2748,4.97299 -5.24547,3.48274 -9.37511,8.7963 -14.054204,18.0834 -3.904644,7.74996 -4.902249,11.09569 -7.016242,23.53081 -0.531884,3.1287 -0.970414,5.74808 -0.974512,5.82084 -0.02468,0.43836 0.156639,0.52916 1.056713,0.52916 h 1.001498 z m 5.074436,-27.7121 c 0.695793,-1.37836 0.815124,-1.93771 0.917246,-4.29948 0.138248,-3.19726 0.641278,-5.97291 1.546943,-8.53582 0.849212,-2.40316 1.077869,-5.07336 0.598925,-6.9941 -0.410659,-1.6469 -1.13087,-5.72714 -2.1309,-12.07228 -2.054532,-13.0359 -7.042383,-19.96628 -19.451531,-27.02696 -9.557254,-5.43798 -13.942184,-8.68858 -21.558314,-15.9814 -2.03442,-1.94806 -3.4705,-3.18474 -3.19129,-2.74818 1.54007,2.408 3.58948,6.1828 7.54151,13.89063 4.80577,9.37294 6.47066,12.2189 9.23283,15.78256 3.99235,5.1508 7.296789,8.13658 14.123356,12.76137 5.80519,3.93284 9.300691,7.60591 11.30638,11.88075 0.713741,1.52124 1.014006,1.90865 1.479314,1.90865 0.613398,0 2.503671,1.85883 2.489569,2.44816 -0.0043,0.18148 -0.450827,-0.17789 -0.992187,-0.79861 -0.886426,-1.01636 -1.654343,-1.44791 -1.640545,-0.92194 0.0029,0.10914 0.177303,1.15093 0.387644,2.3151 0.723985,4.00701 0.38326,10.10869 -0.916028,16.40417 -0.300332,1.45521 -0.611159,2.85419 -0.690728,3.10885 -0.303555,0.97154 0.180201,0.39914 0.947806,-1.12147 z m 2.537365,-4.96394 c 4.285791,-7.7012 9.295151,-12.76338 15.497221,-15.6606 2.80667,-1.31111 4.25305,-1.67604 10.56286,-2.66508 6.80907,-1.0673 9.32771,-1.67487 12.81136,-3.09046 3.15636,-1.2826 4.92931,-2.27828 8.20208,-4.60626 2.12664,-1.51271 8.98695,-7.50704 10.71563,-9.36299 0.86605,-0.92981 0.77178,-0.89186 -1.45521,0.58582 -4.6447,3.08192 -7.9373,4.78198 -12.34357,6.37335 -4.56435,1.64846 -7.78499,2.27566 -13.85018,2.69727 -10.87721,0.7561 -16.48167,2.4588 -21.56354,6.55126 -5.3117,4.27755 -8.872724,11.35188 -9.653515,19.17769 -0.098,0.98226 -0.119425,1.78593 -0.04761,1.78593 0.07182,0 0.57783,-0.80367 1.12447,-1.78593 z m 1.960355,-18.98386 C 100.44447,155.20655 102.04299,151.4943 105,148.5 c 2.15512,-2.1823 4.23684,-3.42428 9.84065,-5.87103 12.62127,-5.51075 17.21559,-10.13463 25.3338,-25.49674 2.75545,-5.21414 4.18223,-7.75306 5.61063,-9.98395 0.48774,-0.76175 0.88679,-1.46386 0.88679,-1.56025 0,-0.0964 -0.94762,0.8376 -2.10584,2.07552 -3.00334,3.21004 -6.71083,6.3608 -11.26857,9.57645 -2.17569,1.53502 -4.43204,3.13121 -5.01413,3.54709 -0.58208,0.41588 -3.61817,2.49631 -6.74687,4.62318 -9.41821,6.40244 -11.82,8.59404 -15.52149,14.16317 -1.92981,2.90353 -6.938447,12.21921 -6.569736,12.21921 0.09288,0 0.692766,-0.30703 1.333096,-0.68228 0.64032,-0.37526 1.37509,-0.64167 1.63283,-0.59203 0.33823,0.0651 0.13783,0.28552 -0.72023,0.79205 -2.139707,1.26311 -2.787593,2.19064 -3.409169,4.88063 -0.616392,2.66756 -0.704041,4.90286 -0.275726,7.03183 0.566498,2.81582 0.545523,2.84009 1.303709,-1.50833 z m -1.220173,-7.9375 c 0.889783,-3.73824 0.932374,-7.3483 0.13301,-11.2741 -1.603141,-7.87327 -4.807404,-12.77694 -10.98822,-16.81594 -2.954245,-1.93051 -4.828503,-2.73252 -11.735404,-5.02163 -6.558684,-2.17371 -12.326994,-4.79991 -16.116094,-7.33735 -1.22401,-0.81968 -2.25996,-1.45583 -2.30212,-1.41367 -0.10529,0.10529 3.9318,3.60337 6.71153,5.81545 2.70285,2.1509 7.36122,5.24964 10.58799,7.04312 6.653133,3.69791 10.236648,6.25546 13.440913,9.59276 5.099773,5.3115 7.881426,12.05188 8.993477,21.79261 0.214777,1.88129 0.296813,1.72806 1.274918,-2.38125 z m 2.510389,-6.54844 c 0.72432,-2.22676 0.83105,-2.93416 1.06874,-7.08356 0.15207,-2.65488 0.42185,-4.40385 1.05593,-6.84571 0.82582,-3.18024 0.84342,-3.36094 0.5798,-5.95312 -0.34018,-3.345 -2.11775,-12.23511 -3.07591,-15.38348 -2.27068,-7.46105 -5.603296,-11.88579 -13.352461,-17.728163 -8.271534,-6.2362 -14.482216,-12.37234 -18.518486,-18.29621 -0.77403,-1.13602 -1.51465,-2.18455 -1.64583,-2.33007 -0.82235,-0.91227 4.39943,12.26808 6.60181,16.66372 4.959192,9.897813 9.337192,15.515973 17.945617,23.029103 4.2953,3.74878 6.204071,6.08502 7.885908,9.65197 1.417602,3.00655 1.987932,5.09873 2.308002,8.46667 0.28199,2.96719 -0.12661,6.82704 -1.757553,16.6026 -0.243575,1.45995 0.337133,0.95031 0.904433,-0.79375 z m 2.83049,-4.7625 c 4.53316,-7.88517 7.21226,-10.57657 17.36969,-17.44937 3.50552,-2.37193 6.80191,-4.69826 7.32531,-5.16961 0.5234,-0.47135 1.97312,-1.46247 3.22161,-2.20249 3.04136,-1.80272 7.28847,-5.18997 10.61367,-8.46484 1.49972,-1.47703 2.36958,-2.42826 1.93302,-2.11385 -6.19355,4.46061 -9.88626,6.0309 -18.37818,7.81517 -7.51442,1.57889 -11.25648,3.12125 -15.14583,6.24267 -2.11217,1.69512 -3.47373,3.34467 -4.5894,5.56011 -0.98265,1.95127 -2.04384,4.91411 -1.90705,5.32448 0.0489,0.14664 0.60427,-0.40143 1.2342,-1.21793 3.19454,-4.14072 8.20814,-7.19896 15.28224,-9.322 1.28554,-0.38581 3.28229,-0.98603 4.4372,-1.33381 1.15492,-0.34779 2.22034,-0.59218 2.36761,-0.54309 0.28776,0.0959 0.17022,0.13905 -6.52339,2.39385 -6.18311,2.08284 -8.68793,3.41961 -12.32687,6.57863 -3.2227,2.79767 -5.76022,6.77726 -5.99456,9.40124 -0.19053,2.13347 -0.37586,6.68366 -0.27223,6.68366 0.0539,0 0.66277,-0.98227 1.35296,-2.18282 z m 1.26423,-22.23361 c 0.85881,-3.68321 2.37297,-6.8218 4.28999,-8.8924 0.89491,-0.96662 2.83554,-2.4892 4.96039,-3.89184 6.81276,-4.4972 9.8761,-7.38023 12.38216,-11.653313 1.76322,-3.00648 2.62659,-5.29555 4.57599,-12.13248 1.90423,-6.6785 3.40252,-11.43658 4.49894,-14.2872 0.85671,-2.22738 0.8438,-2.21519 -2.24237,2.11637 -5.85811,8.22207 -7.87891,10.05327 -18.54063,16.80104 -3.64998,2.31005 -7.43832,6.03545 -8.772,8.62624 -1.59219,3.092983 -1.79401,4.442103 -1.61868,10.820633 0.12184,4.43266 0.0748,5.82377 -0.23247,6.87917 -1.43735,4.93645 -1.39856,4.59824 -0.85383,7.44573 0.42075,2.19945 0.52944,2.48398 0.69315,1.81468 0.10679,-0.43656 0.4935,-2.07754 0.85936,-3.64663 z m -1.57578,-4.91845 c 0.64526,-1.6682 0.81716,-4.87384 0.46762,-8.72043 -0.16753,-1.84359 -0.40417,-4.61342 -0.52587,-6.15517 -0.18201,-2.305733 -0.3699,-3.120773 -1.05878,-4.592893 -0.78273,-1.67265 -4.433616,-6.72951 -4.873225,-6.74992 -0.10914,-0.005 -0.198437,1.13057 -0.198437,2.52364 v 2.53286 l 1.456811,1.86187 c 1.688761,2.1583 3.391941,5.486143 3.964521,7.746233 0.49902,1.96976 0.50436,3.94786 0.0212,7.84274 -0.35791,2.88515 -0.29974,5.55091 0.1109,5.0822 0.1033,-0.11791 0.38917,-0.73492 0.63526,-1.37113 z m -1.29078,-5.42199 c 0.10378,-1.7993 0.1013,-3.91266 -0.005,-4.69636 -0.50399,-3.69824 -3.115951,-8.252993 -6.66644,-11.624953 -2.181448,-2.07176 -2.794175,-2.55472 -8.544732,-6.73506 -6.020317,-4.37645 -8.217617,-6.06454 -11.244792,-8.63891 -4.395873,-3.73834 -8.863543,-7.115 -8.863543,-6.69906 0,0.43042 3.70752,5.71007 5.79492,8.25219 3.85859,4.69916 8.578712,9.0636 15.107165,13.96879 4.392819,3.30056 6.303704,5.09924 8.386666,7.894223 2.158942,2.89693 3.629235,5.76149 4.740306,9.23549 0.40724,1.2733 0.82297,2.3151 0.92384,2.3151 0.10087,0 0.26831,-1.47215 0.37209,-3.27145 z m 2.86885,-12.097053 c 1.42786,-3.88535 5.22463,-7.57134 11.98129,-11.63171 4.37619,-2.62984 7.60565,-5.14647 10.41928,-8.11947 2.61905,-2.76738 3.70915,-4.28852 1.91648,-2.67427 -1.85078,1.66657 -5.66866,4.08121 -10.02642,6.34126 -7.18912,3.72848 -10.50517,6.2287 -12.59109,9.4934 -1.16256,1.81953 -2.19589,4.67282 -2.44301,6.74575 -0.21271,1.78429 0.051,1.72933 0.74347,-0.15496 z m 0.18084,-5.42245 c 0.49599,-1.03926 1.54153,-2.46035 2.77419,-3.77068 l 1.97821,-2.10285 v -1.60306 c 0,-3.13921 -1.68664,-6.98884 -4.58192,-10.45789 -1.04694,-1.25443 -3.96037,-3.83749 -9.406573,-8.33996 -5.045199,-4.17095 -7.094518,-6.79566 -8.789114,-11.25684 -0.473276,-1.24595 -0.898411,-2.22745 -0.944744,-2.18112 -0.04633,0.0463 0.03144,1.9012 0.172829,4.12193 0.482643,7.58064 1.881362,14.11306 4.230972,19.75983 1.951385,4.68973 3.652329,7.42272 7.807381,12.54451 3.080419,3.79712 4.225299,5.41855 4.812709,6.81594 l 0.41584,0.98926 0.36712,-1.42562 c 0.20192,-0.78409 0.72531,-2.17615 1.1631,-3.09345 z m 11.11437,-11.61404 c 2.67693,-5.53053 3.24175,-12.82017 1.7905,-23.10855 -0.56866,-4.03141 -0.78109,-4.437 -1.13427,-2.16563 -0.3651,2.34807 -1.2494,5.42622 -1.9845,6.90782 -0.41157,0.82952 -1.71729,2.88318 -2.90162,4.56368 -1.18432,1.68051 -2.51029,3.80526 -2.9466,4.72167 -0.7432,1.56102 -0.7829,1.60017 -0.62875,0.62018 0.21924,-1.39383 0.77291,-2.43001 3.51143,-6.57151 1.27105,-1.92223 2.49861,-4.03074 2.72791,-4.68559 1.80033,-5.14142 1.61629,-6.95753 -1.74287,-17.19791 -1.07404,-3.27422 -2.1452,-6.965159 -2.38035,-8.202086 -0.23514,-1.236927 -0.49288,-2.546615 -0.57275,-2.910417 -0.10355,-0.471687 -0.39775,0.325352 -1.02545,2.778125 -1.01807,3.978178 -1.38647,5.060638 -3.37678,9.921878 -3.12282,7.62732 -4.17672,11.63698 -4.14877,15.78427 0.0264,3.91746 0.24033,4.67844 1.66855,5.93561 0.68228,0.60056 1.78349,1.85287 2.44715,2.7829 0.66366,0.93003 1.23762,1.69097 1.27548,1.69097 0.0379,0 0.49733,-0.86321 1.02105,-1.91823 0.52373,-1.05503 1.31648,-2.33495 1.76168,-2.84427 0.77174,-0.88291 0.75491,-0.81512 -0.36128,1.45521 -1.5402,3.13276 -1.94492,4.62193 -1.37031,5.0421 0.23159,0.16934 0.42108,0.45116 0.42108,0.62626 0,0.1751 0.48356,1.73926 1.07457,3.47591 0.6863,2.01662 1.17641,4.05401 1.3564,5.63854 l 0.28183,2.481 2.09759,-1.33512 c 2.01178,-1.28049 2.14021,-1.42315 3.13908,-3.48681 z m -7.97313,-4.43824 c -1.83559,-4.67758 -3.92409,-7.27227 -9.377914,-11.65085 -6.648769,-5.33793 -8.974835,-7.85449 -11.289795,-12.21434 -0.5448,-1.02605 -0.993677,-1.80361 -0.997506,-1.72793 -0.02908,0.57495 1.219549,4.31404 1.882713,5.63788 2.216651,4.425 4.312469,6.75971 9.884285,11.01098 4.496757,3.431 7.464147,6.26384 9.091947,8.67968 0.61282,0.9095 1.16759,1.65364 1.2328,1.65364 0.0652,0 -0.12672,-0.62507 -0.42653,-1.38906 z"
       id="path1"
       sodipodi:nodetypes="sssssssssssssssssssscsssssscscsscsssssssssssscsssssssscsssssssssssssssssssssssssssssssssssssssscsssssssscsssssssssssssscscssssssssssssssssssssssssssssssscsssssssssssssssssssssscssssssssssssssssssssssssssssssssssssssssssscscssssssscssssssssssssssssssssscsssscsssscsssssssssscsssssssssssssssscsssssssssss" /></g></svg>
